# xmcd
#
# Track frame offsets: 
#        150
#        12093
#        29765
#        39891
#        49415
#        76885
#        91892
#        104867
#        116789
#        129271
#        141141
#        150740
#        161023
#        174517
#        185187
#        195911
#        204986
#        217729
#        226563
#        255857
#        267605
#        281401
#        294243
#        311094
#        341946
#
# Disc length: 4764 seconds
#
# Revision: 0
# Processed by: cddbd v1.5.2PL0 Copyright (c) Steve Scherf et al.
# Submitted via: ExactAudioCopyFreeDBPlugin 1.0
#
DISCID=60129a19
DTITLE=Various Artist - Really the Blues - Disc 34
DYEAR=1900
DGENRE=50s
TTITLE0=Coasters - Searchin'
TTITLE1=Bob Dorough - Daybreak in Alabama
TTITLE2=Jackie Wilson - Come Back to Me
TTITLE3=Johnny Mandel - Barbara Surrenders
TTITLE4=Sonny Rollins - Doxy (excerpt)
TTITLE5=Ralph Burns - There's a Boat Dat's Leavin' Soon for New York
TTITLE6=Betty Carter - Babe's Blues
TTITLE7=Mickey Katz - St. Looey Blues
TTITLE8=Little Walter - Key to the Highway
TTITLE9=Hank Ballard - Tear Drops on Your Letter
TTITLE10=Bobby Jay - I'm So Lonely
TTITLE11=Link Wray - Missing Link
TTITLE12=Buddy Guy - This Is the End
TTITLE13=Ike Turner - You've Got to Move
TTITLE14=Jimmy Logsdon - Rock in My Pocket
TTITLE15=Eddie Cochran - Summertime Blues
TTITLE16=Ray Price - Invitation to the Blues
TTITLE17=Terry Daly - You Don't Bug Me
TTITLE18=Jack Montrose - Lament
TTITLE19=Don Gibson - I Can't Stop Loving You
TTITLE20=Brownie McGhee and Sonny Terry - Better Day
TTITLE21=Lightnin' Slim - My Starter Won't Start
TTITLE22=Jimmy Smith - Groovin' at Small's
TTITLE23=Babs Gonzales - Lonely One
TTITLE24=Bobby Short - Wake Up Chillun Wake Up
EXTD=
EXTT0=
EXTT1=
EXTT2=
EXTT3=
EXTT4=
EXTT5=
EXTT6=
EXTT7=
EXTT8=
EXTT9=
EXTT10=
EXTT11=
EXTT12=
EXTT13=
EXTT14=
EXTT15=
EXTT16=
EXTT17=
EXTT18=
EXTT19=
EXTT20=
EXTT21=
EXTT22=
EXTT23=
EXTT24=
PLAYORDER=
